<?xml version="1.0" standalone="no"?>
<!DOCTYPE svg PUBLIC "-//W3C//DTD SVG 20010904//EN"
 "http://www.w3.org/TR/2001/REC-SVG-20010904/DTD/svg10.dtd">
<svg version="1.0" xmlns="http://www.w3.org/2000/svg"
 width="1024.000000pt" height="1024.000000pt" viewBox="0 0 1024.000000 1024.000000"
 preserveAspectRatio="xMidYMid meet">

<g transform="translate(0.000000,1024.000000) scale(0.100000,-0.100000)"
fill="#000000" stroke="none">
<path d="M3565 8373 c-11 -2 -90 -18 -175 -34 -206 -40 -218 -44 -237 -85 -16
-32 -15 -43 7 -185 21 -131 27 -153 47 -169 13 -10 28 -20 33 -22 17 -5 24
-179 11 -253 -7 -38 -36 -128 -66 -200 -146 -357 -154 -480 -65 -930 45 -227
46 -237 24 -256 -15 -12 -16 -31 -10 -154 3 -77 20 -293 37 -480 49 -562 69
-815 69 -906 0 -104 10 -122 69 -122 74 0 72 -14 41 313 -16 182 -52 609 -89
1070 -5 63 -8 116 -7 118 2 1 35 -11 75 -28 110 -45 305 -106 464 -145 416
-103 830 -145 1426 -145 663 0 1069 50 1680 206 139 36 256 63 258 60 3 -3 -7
-112 -21 -243 -14 -131 -48 -444 -76 -696 -27 -252 -50 -467 -50 -477 0 -29
28 -50 68 -50 64 0 64 1 79 197 24 342 94 991 133 1246 16 102 18 137 9 161
-9 26 -5 54 24 171 64 252 79 348 79 495 1 217 -42 401 -140 595 -59 120 -92
167 -169 246 l-64 66 16 84 c22 118 22 155 0 179 -10 11 -25 20 -33 20 -12 0
-13 9 -8 43 20 129 19 144 -4 181 -12 20 -32 41 -43 48 -31 16 -274 67 -322
68 -48 0 -99 -29 -119 -67 -10 -21 -36 -126 -36 -148 0 -1 -17 -7 -38 -13 -57
-17 -71 -40 -93 -148 -11 -55 -23 -102 -27 -105 -4 -3 -34 -13 -67 -23 -123
-36 -261 -133 -350 -244 l-49 -62 -23 86 c-57 215 -196 390 -388 489 -39 19
-89 51 -112 69 -116 93 -331 118 -492 57 -259 -98 -463 -355 -538 -679 -36
-159 -34 -153 -76 -167 -49 -17 -84 -50 -92 -86 -8 -36 -18 -37 -36 -2 -8 15
-74 104 -147 198 -73 93 -146 197 -162 230 -40 82 -67 202 -51 224 37 52 39
67 14 194 -30 154 -39 183 -66 202 -20 14 -78 18 -122 8z m77 -194 c9 -46 17
-91 18 -100 0 -13 -35 -23 -187 -52 -103 -20 -188 -35 -190 -33 -5 5 -35 197
-31 200 6 6 353 74 363 72 5 -2 17 -40 27 -87z m3139 20 c57 -12 105 -22 106
-23 8 -7 -22 -116 -31 -116 -15 0 -249 49 -251 52 -1 2 2 17 6 33 l7 30 1 -29
c1 -39 12 -27 21 24 7 39 -4 58 -13 23 -4 -14 -5 -12 -6 5 -1 29 22 29 160 1z
m-1681 -47 c0 -4 -26 -17 -57 -27 -84 -29 -189 -101 -261 -181 -82 -89 -161
-247 -199 -395 l-27 -107 -64 -6 c-34 -4 -67 -4 -71 -1 -19 11 46 248 97 350
88 179 268 334 423 364 57 11 159 13 159 3z m171 -133 c57 -18 102 -61 142
-136 83 -159 112 -335 104 -633 -3 -113 -10 -221 -16 -239 -6 -19 -29 -54 -52
-77 l-42 -43 -33 42 -33 42 22 23 c20 21 22 36 25 147 6 209 -20 239 -233 269
-61 8 -190 18 -288 22 -123 5 -177 11 -177 19 0 33 46 180 79 250 38 81 107
177 165 228 92 82 231 117 337 86z m1242 -36 c-7 -2 -19 -2 -25 0 -7 3 -2 5
12 5 14 0 19 -2 13 -5z m225 -40 c67 -14 122 -30 122 -34 0 -5 -8 -5 -17 -2
-12 5 -15 2 -10 -10 3 -9 3 -17 -2 -17 -13 0 -21 -40 -8 -41 7 0 6 -3 -2 -6
-11 -5 -11 -7 0 -15 18 -13 -47 -4 -179 25 l-103 22 7 30 c3 16 8 40 11 52 3
15 -1 23 -14 27 -43 13 82 -7 195 -31z m-259 -5 c-12 -45 -13 -44 24 -56 l32
-11 -35 6 c-19 3 -36 6 -38 8 -6 5 11 85 19 85 4 0 3 -15 -2 -32z m-2869 -41
c0 -43 41 -172 75 -234 19 -34 70 -107 114 -163 112 -140 157 -208 206 -314
48 -103 92 -253 77 -268 -5 -5 -44 1 -98 18 -220 65 -499 13 -706 -132 l-76
-53 -7 86 c-15 170 6 273 100 512 77 195 89 250 87 403 l-1 127 37 7 c20 3 64
12 97 19 88 19 95 18 95 -8z m2056 -173 c56 -117 75 -208 81 -384 l5 -155 -53
-30 c-30 -16 -56 -31 -59 -33 -3 -1 -2 39 2 90 15 166 -9 423 -52 569 -11 36
-20 70 -20 75 1 20 64 -66 96 -132z m1045 -18 c112 -24 176 -44 219 -67 108
-57 193 -173 274 -375 73 -179 98 -356 77 -534 -9 -73 -123 -544 -135 -558
-13 -13 -484 -132 -524 -132 -5 0 6 51 25 113 71 233 89 406 59 556 -42 206
-192 418 -348 491 -129 60 -303 75 -431 36 -55 -16 -56 -15 -33 71 34 127 98
230 192 307 129 106 253 149 391 134 41 -4 147 -23 234 -42z m-1776 -386 c162
-10 282 -25 301 -38 6 -4 14 -17 18 -29 5 -17 3 -22 -11 -22 -10 0 -97 -9
-193 -20 -203 -23 -383 -26 -632 -9 l-178 11 0 28 c0 51 46 68 215 79 170 11
306 11 480 0z m-698 -172 c-2 -13 -4 -5 -4 17 -1 22 1 32 4 23 2 -10 2 -28 0
-40z m1020 -30 c-2 -18 -4 -6 -4 27 0 33 2 48 4 33 2 -15 2 -42 0 -60z m983
-10 c110 -41 188 -159 198 -301 7 -101 -9 -146 -107 -296 -49 -75 -125 -208
-169 -296 -83 -162 -126 -221 -196 -269 -33 -22 -49 -26 -110 -25 -60 1 -65 2
-33 9 29 5 55 24 104 71 76 75 116 134 167 247 43 95 103 200 171 296 106 152
124 253 66 378 -24 53 -85 112 -130 127 -54 18 -166 13 -245 -10 -113 -33
-200 -86 -339 -207 -37 -32 -39 -32 -52 -15 -10 14 -11 22 -2 33 13 17 -31
-18 -51 -40 -11 -13 -11 -12 -3 7 18 37 122 134 191 178 209 135 380 171 540
113z m-2013 -10 c-3 -8 -6 -5 -6 6 -1 11 2 17 5 13 3 -3 4 -12 1 -19z m150
-74 c-3 -3 -12 -4 -19 -1 -8 3 -5 6 6 6 11 1 17 -2 13 -5z m126 -21 c-7 -2
-21 -2 -30 0 -10 3 -4 5 12 5 17 0 24 -2 18 -5z m514 1 c-3 -3 -12 -4 -19 -1
-8 3 -5 6 6 6 11 1 17 -2 13 -5z m-300 -10 c-3 -3 -12 -4 -19 -1 -8 3 -5 6 6
6 11 1 17 -2 13 -5z m110 0 c-3 -3 -12 -4 -19 -1 -8 3 -5 6 6 6 11 1 17 -2 13
-5z m-477 -89 c178 -37 500 -44 705 -15 39 5 95 13 126 16 l56 7 62 -82 c71
-93 81 -119 81 -213 0 -79 14 -70 -165 -97 -362 -55 -682 -53 -1029 6 l-98 16
4 76 c5 88 20 120 103 234 43 58 61 77 74 72 9 -4 45 -13 81 -20z m-431 -90
c35 -9 67 -18 72 -20 4 -3 -1 -26 -12 -51 -19 -42 -20 -65 -19 -399 0 -195 -3
-355 -8 -355 -38 0 -366 105 -531 170 l-129 51 -7 47 c-4 26 -20 114 -36 196
l-29 150 27 29 c67 69 213 149 336 182 70 19 256 19 336 0z m1581 -70 c0 -5
-5 -3 -10 5 -5 8 -10 20 -10 25 0 6 5 3 10 -5 5 -8 10 -19 10 -25z m597 -8
c21 -20 28 -102 14 -153 -14 -53 -71 -118 -135 -154 -36 -21 -56 -41 -70 -69
-52 -111 -183 -208 -331 -247 -27 -8 -53 -14 -57 -14 -5 0 -8 25 -8 55 l0 55
33 0 c91 0 222 76 278 160 27 41 29 49 22 95 -21 133 18 222 122 279 36 20
110 16 132 -7z m-1887 -332 c325 -59 643 -60 1018 -5 74 11 138 20 143 20 5 0
9 -113 9 -261 l0 -262 -362 6 c-211 3 -425 12 -510 21 -187 19 -401 47 -410
53 -5 2 -8 105 -8 229 0 210 1 225 18 220 9 -3 55 -12 102 -21z m1670 -151 c0
-8 -19 -13 -24 -6 -3 5 1 9 9 9 8 0 15 -2 15 -3z"/>
<path d="M6804 7306 c-39 -17 -66 -55 -90 -126 -16 -45 -19 -84 -19 -215 0
-183 19 -273 81 -380 66 -117 107 -148 194 -149 51 -1 63 3 97 30 21 16 49 52
63 80 24 47 25 57 25 224 -1 187 -11 251 -60 357 -31 69 -99 141 -160 169 -57
27 -87 29 -131 10z m125 -155 c37 -35 74 -111 97 -201 12 -49 15 -95 12 -195
-4 -135 -18 -185 -54 -199 -71 -27 -164 212 -164 424 0 90 9 137 35 176 20 31
36 30 74 -5z"/>
<path d="M4292 5440 c-26 -11 -33 -25 -97 -210 -26 -74 -87 -249 -136 -389
-70 -198 -87 -256 -78 -267 17 -20 162 -19 183 1 8 9 25 47 38 85 l22 70 154
-2 154 -3 22 -67 c33 -97 34 -98 131 -98 66 0 84 3 89 16 7 18 -279 832 -300
854 -17 18 -147 25 -182 10z m98 -243 c0 -8 20 -75 45 -149 25 -75 45 -138 45
-142 0 -3 -45 -6 -101 -6 -77 0 -100 3 -97 13 3 6 24 76 48 155 24 78 47 142
52 142 4 0 8 -6 8 -13z"/>
<path d="M5018 5439 c-15 -8 -18 -24 -18 -84 0 -92 4 -95 129 -95 l91 0 0
-331 c0 -208 4 -337 10 -350 9 -16 22 -19 83 -19 44 0 78 5 85 12 9 9 12 100
12 350 l0 338 91 0 c123 0 129 4 129 90 0 101 12 97 -320 98 -170 1 -282 -3
-292 -9z"/>
<path d="M5736 5431 c-16 -17 -17 -48 -14 -337 3 -312 4 -320 27 -372 14 -30
43 -69 68 -92 64 -56 126 -75 253 -75 99 0 109 2 172 33 38 19 80 49 97 69 58
70 61 94 61 449 0 370 7 344 -94 344 -89 0 -86 12 -87 -318 0 -310 -4 -341
-52 -376 -37 -28 -142 -34 -185 -12 -66 34 -66 38 -72 378 -4 260 -7 310 -20
318 -8 5 -42 10 -76 10 -47 0 -65 -4 -78 -19z"/>
<path d="M2390 4311 c-15 -30 -14 -1103 2 -1119 8 -8 47 -12 108 -12 61 0 100
4 108 12 8 8 12 60 12 169 l0 157 113 1 c175 1 269 32 346 116 74 80 108 196
98 328 -8 108 -40 181 -106 248 -95 94 -197 119 -496 119 -162 0 -175 -1 -185
-19z m460 -227 c68 -27 101 -113 86 -219 -15 -97 -81 -135 -235 -135 l-81 0 0
184 c0 183 0 185 23 189 37 8 170 -4 207 -19z"/>
<path d="M3329 4309 c-20 -20 -20 -26 -17 -437 4 -407 4 -418 27 -475 33 -83
77 -135 146 -173 110 -61 262 -80 394 -49 129 31 219 104 263 214 22 55 23 66
26 482 3 383 2 428 -13 443 -13 12 -36 16 -98 16 -45 0 -89 -5 -97 -10 -13 -8
-16 -68 -20 -407 l-5 -398 -25 -49 c-35 -70 -72 -88 -175 -84 -65 2 -86 7
-114 27 -64 46 -65 53 -71 492 -4 315 -8 399 -19 412 -10 13 -32 17 -97 17
-72 0 -87 -3 -105 -21z"/>
<path d="M4402 4318 c-17 -17 -17 -1109 0 -1126 17 -17 649 -17 666 0 16 16
16 170 0 186 -9 9 -73 12 -225 12 l-214 0 3 133 3 132 159 3 c97 1 165 7 173
13 9 8 13 37 13 90 0 108 -1 109 -197 109 l-153 0 0 120 0 120 203 0 c243 0
237 -3 237 106 0 121 22 114 -344 114 -229 0 -315 -3 -324 -12z"/>
<path d="M5287 4312 c-14 -15 -15 -73 -10 -562 3 -336 9 -550 16 -557 10 -14
171 -19 201 -7 14 5 16 31 16 185 l0 179 69 0 c55 0 70 -3 75 -17 18 -45 191
-325 209 -338 15 -11 49 -15 118 -15 97 0 129 5 129 20 0 4 -47 86 -104 182
-121 203 -125 212 -95 229 43 23 111 94 137 144 25 46 27 59 27 175 0 118 -2
128 -29 185 -40 82 -108 147 -180 174 -84 31 -169 41 -377 41 -165 0 -188 -2
-202 -18z m452 -222 c133 -38 146 -240 20 -306 -28 -14 -88 -20 -186 -16 l-63
2 0 165 0 165 98 0 c53 0 113 -4 131 -10z"/>
<path d="M6386 4322 c-112 -1 -185 -7 -193 -13 -17 -15 -18 -180 -1 -197 8 -8
56 -12 148 -12 l137 0 6 -157 c4 -87 7 -289 7 -448 0 -213 3 -294 12 -303 15
-15 186 -16 208 -2 13 8 15 70 15 457 l0 448 134 3 c79 1 140 7 148 14 19 15
18 181 -1 197 -15 12 -294 18 -620 13z"/>
<path d="M7394 4316 c-30 -13 -35 -25 -112 -263 -152 -467 -262 -819 -262
-834 0 -32 23 -39 121 -39 65 0 100 4 107 13 5 6 23 55 39 107 l30 95 193 0
194 0 31 -91 c17 -50 37 -99 44 -108 20 -23 202 -23 222 0 11 14 -13 93 -165
550 -97 293 -186 544 -196 556 -16 21 -28 23 -117 26 -68 1 -108 -2 -129 -12z
m180 -483 c32 -109 60 -206 63 -215 5 -17 -5 -18 -120 -18 -69 0 -128 4 -131
8 -6 9 116 422 124 422 3 0 32 -89 64 -197z"/>
<path d="M3222 2543 l3 -288 47 -3 c65 -4 69 7 67 179 0 77 1 142 3 145 3 2
31 -45 62 -106 44 -85 63 -111 82 -116 35 -9 51 9 114 127 l55 103 3 -162 c2
-160 3 -162 26 -168 12 -3 40 -4 62 -2 l39 3 0 285 0 285 -61 3 -61 3 -79
-151 c-43 -82 -81 -150 -84 -150 -3 0 -39 66 -80 148 l-75 147 -63 3 -62 3 2
-288z"/>
<path d="M4075 2555 c-54 -151 -95 -281 -92 -290 8 -19 109 -21 125 -2 5 6 15
30 21 52 l10 40 109 -3 109 -3 13 -42 c7 -23 17 -45 24 -49 20 -13 106 -9 112
5 2 7 -18 78 -46 158 -29 79 -67 188 -86 241 -19 53 -41 113 -49 133 l-15 35
-69 0 -69 0 -97 -275z m203 33 c51 -143 54 -128 -27 -128 -50 0 -71 4 -71 12
0 15 60 198 65 198 2 0 16 -37 33 -82z"/>
<path d="M4712 2543 l3 -288 49 -3 c27 -2 54 2 60 8 6 6 11 46 11 93 l0 82 35
3 c34 3 36 1 90 -90 l55 -93 44 -3 c51 -4 91 4 91 18 0 5 -25 48 -55 96 -30
49 -55 90 -55 93 0 4 13 13 29 23 122 69 88 299 -50 338 -18 6 -96 10 -172 10
l-137 0 2 -287z m272 161 c25 -9 40 -70 26 -103 -14 -35 -47 -51 -105 -51 -72
0 -75 3 -75 86 l0 74 69 0 c38 0 76 -3 85 -6z"/>
<path d="M5387 2823 c-4 -3 -7 -131 -7 -284 0 -303 -3 -289 60 -289 59 0 60 3
60 121 0 60 4 109 8 109 5 0 39 -35 75 -77 126 -149 118 -143 186 -143 34 0
61 3 61 8 0 4 -43 61 -96 127 -52 66 -99 127 -104 136 -7 13 13 45 91 144 59
74 98 133 95 141 -4 10 -23 14 -66 14 -55 0 -62 -2 -78 -28 -9 -15 -51 -71
-92 -125 l-75 -97 -3 125 -3 125 -53 0 c-29 0 -56 -3 -59 -7z"/>
<path d="M6030 2546 c0 -250 2 -285 16 -290 31 -12 339 -7 352 6 7 7 12 30 12
53 0 23 -5 46 -12 53 -8 8 -52 12 -131 12 l-118 0 3 53 3 52 89 3 c50 2 96 8
103 14 15 12 17 66 4 87 -5 8 -26 15 -47 15 -22 1 -65 3 -96 4 l-58 2 0 50 0
50 108 0 c59 0 113 4 120 9 9 5 12 25 10 57 l-3 49 -177 3 -178 2 0 -284z"/>
<path d="M6610 2776 c0 -63 4 -66 91 -66 l59 0 0 -225 0 -225 23 -6 c13 -3 41
-4 63 -2 l39 3 3 227 2 227 68 3 67 3 3 58 3 57 -211 0 -210 0 0 -54z"/>
</g>
</svg>
